<svg xmlns="http://www.w3.org/2000/svg" viewBox="0 0 100 100">
  <defs>
    <linearGradient id="gold" x1="0%" y1="0%" x2="100%" y2="100%">
      <stop offset="0%" style="stop-color:#d4af37"/>
      <stop offset="50%" style="stop-color:#c9a86c"/>
      <stop offset="100%" style="stop-color:#b8860b"/>
    </linearGradient>
  </defs>
  <circle cx="50" cy="50" r="48" fill="#1a1a2e"/>
  <g fill="url(#gold)">
    <!-- Fork -->
    <path d="M30 20v25c0 3 2 5 5 5h2v30h6V50h2c3 0 5-2 5-5V20h-4v20h-3V20h-4v20h-3V20h-6z"/>
    <!-- Knife -->
    <path d="M60 20c0 0-8 10-8 25c0 5 3 5 5 5h1v30h6V50h1c2 0 5 0 5-5c0-15-6-25-6-25h-4z"/>
  </g>
  <text x="50" y="92" text-anchor="middle" fill="url(#gold)" font-family="serif" font-size="12" font-weight="bold">SAVORIA</text>
</svg>
